<?xml version="1.0" encoding="UTF-8"?>
<svg id="_レイヤー_2" data-name="レイヤー 2" xmlns="http://www.w3.org/2000/svg" viewBox="0 0 390.01 140.65">
  <defs>
    <style>
      .cls-1 {
        fill: #ed1c24;
      }

      .cls-2 {
        fill: #b29ea0;
      }

      .cls-3 {
        fill: #590e13;
      }
    </style>
  </defs>
  <g id="l1">
    <g>
      <path class="cls-3" d="m348.47,2.31s97,77-203,133c0,0,183.59-12.89,233-74,38-47-30-59-30-59Z"/>
      <g>
        <path class="cls-1" d="m39.89,122.45H.05v-52.44h15.81v39.88h24.03v12.56Z"/>
        <path class="cls-1" d="m89.38,103.15c0,3.83-.83,7.25-2.5,10.25-1.67,3-4.16,5.37-7.47,7.11-3.32,1.74-7.36,2.61-12.13,2.61s-8.81-.87-12.13-2.61c-3.32-1.74-5.8-4.11-7.45-7.11-1.65-3-2.48-6.42-2.48-10.25,0-2.9.46-5.54,1.38-7.91.92-2.37,2.32-4.47,4.2-6.3,1.88-1.83,4.19-3.24,6.94-4.22,2.75-.98,5.93-1.48,9.53-1.48s6.84.5,9.63,1.49,5.09,2.39,6.92,4.18c1.83,1.79,3.21,3.88,4.14,6.28.93,2.4,1.4,5.04,1.4,7.95Zm-14.34,0c0-3.05-.66-5.44-1.99-7.17-1.32-1.73-3.25-2.59-5.77-2.59s-4.41.86-5.73,2.59c-1.32,1.73-1.99,4.12-1.99,7.17s.67,5.42,2.01,7.19c1.34,1.77,3.24,2.65,5.71,2.65s4.45-.88,5.77-2.63c1.32-1.75,1.99-4.16,1.99-7.21Z"/>
        <path class="cls-1" d="m135.2,92.14h-6.73c2.37,2.07,3.56,4.6,3.56,7.6,0,1.59-.33,3.12-1,4.58-.67,1.46-1.65,2.76-2.95,3.9-1.3,1.14-2.9,2.06-4.81,2.78-1.9.72-4.08,1.15-6.53,1.31-3.15.13-4.73.97-4.73,2.53,0,.61.2,1.05.61,1.32.4.28,1.04.49,1.91.62s2.34.3,4.41.47c2.35.2,4.53.56,6.55,1.06,2.02.5,3.9,1.56,5.64,3.18,1.74,1.61,2.61,3.92,2.61,6.92,0,2.4-.65,4.51-1.95,6.36-1.3,1.84-3.4,3.28-6.3,4.31-2.9,1.03-6.73,1.55-11.5,1.55-6.86,0-11.9-.92-15.12-2.76-3.22-1.84-4.82-4.3-4.82-7.38,0-.83.21-1.79.62-2.88.42-1.08,1.3-2.13,2.65-3.14,1.35-1.01,3.31-1.69,5.88-2.04-.91-.33-1.69-.96-2.35-1.91s-.98-1.94-.98-2.97c0-1.34.46-2.66,1.38-3.97.92-1.31,2.42-2.16,4.48-2.53-2.88-.76-5.36-2.18-7.45-4.28s-3.14-4.81-3.14-8.13c0-2.52.49-4.73,1.46-6.62.97-1.89,2.31-3.43,4.03-4.62,1.72-1.19,3.71-2.06,5.98-2.63,2.27-.57,4.75-.85,7.45-.85h21.15v8.21Zm-12.33,37.49c0-1.69-.9-2.78-2.71-3.27-1.8-.49-3.66-.74-5.58-.74-3.15,0-5.43.33-6.83,1-1.4.67-2.1,1.73-2.1,3.2,0,2.88,2.9,4.31,8.7,4.31,2.6,0,4.67-.37,6.21-1.12,1.54-.74,2.31-1.87,2.31-3.39Zm-2.72-30.99c0-1.94-.66-3.5-1.99-4.67s-2.81-1.76-4.45-1.76c-2.09,0-3.74.71-4.94,2.12-1.2,1.41-1.8,2.9-1.8,4.46,0,1.08.26,2.09.78,3.03.52.93,1.25,1.68,2.19,2.25.95.57,2.07.85,3.39.85,1.97,0,3.59-.62,4.88-1.85,1.29-1.24,1.93-2.71,1.93-4.43Z"/>
        <path class="cls-1" d="m154.42,122.45h-13.66v-38.52h13.66v38.52Zm-1.1-47.41c0,1.59-.57,2.94-1.7,4.05-1.13,1.11-2.48,1.67-4.05,1.67-1.06,0-2.02-.25-2.89-.76-.87-.5-1.56-1.19-2.06-2.06-.5-.87-.76-1.83-.76-2.89,0-1.56.55-2.91,1.66-4.05,1.11-1.13,2.46-1.7,4.05-1.7s2.91.57,4.05,1.7,1.7,2.48,1.7,4.05Z"/>
        <path class="cls-1" d="m193.92,111.21c0,3.53-1.29,6.4-3.88,8.61-2.59,2.21-6.43,3.31-11.52,3.31-2.85,0-5.39-.26-7.6-.78s-4.64-1.25-7.26-2.21v-9.69c2.29,1.31,4.29,2.31,5.98,2.99,1.69.68,3.54,1.02,5.56,1.02,3.41,0,5.11-.93,5.11-2.8,0-.63-.25-1.19-.74-1.68s-1.35-1.05-2.57-1.66c-1.22-.62-2.86-1.36-4.9-2.21-2.52-1.11-4.67-2.6-6.43-4.46-1.77-1.87-2.65-4.15-2.65-6.85,0-1.92.59-3.76,1.76-5.52,1.17-1.77,2.94-3.21,5.32-4.33,2.37-1.12,5.23-1.68,8.59-1.68.81,0,1.83.06,3.08.17,1.25.11,2.82.41,4.73.89,1.9.48,3.71,1.16,5.43,2.04v9.42c-.81-.48-1.48-.88-2.02-1.21-.54-.33-1.27-.69-2.18-1.1-.91-.4-1.97-.76-3.2-1.08-1.22-.31-2.48-.47-3.76-.47-1.56,0-2.64.3-3.22.91-.58.61-.87,1.21-.87,1.82s.3,1.22.91,1.76c.61.54,1.95,1.22,4.05,2.02,3.03,1.16,5.45,2.35,7.26,3.58,1.82,1.22,3.11,2.57,3.88,4.03.77,1.46,1.15,3.19,1.15,5.18Z"/>
        <path class="cls-1" d="m231.68,120.21c-1.41.68-3.36,1.34-5.84,1.97-2.49.63-4.86.95-7.13.95-9.81,0-14.72-4.79-14.72-14.38v-15.36h-6.17v-2.38l18.27-18.62h1.55v11.54h13.01v9.46h-13.01v12.33c0,1.44.09,2.6.26,3.48.18.88.67,1.62,1.49,2.21s2.06.89,3.73.89c2.17,0,5.02-.91,8.55-2.72v10.63Z"/>
        <path class="cls-1" d="m251.99,122.45h-13.66v-38.52h13.66v38.52Zm-1.1-47.41c0,1.59-.57,2.94-1.7,4.05-1.13,1.11-2.48,1.67-4.05,1.67-1.06,0-2.02-.25-2.89-.76-.87-.5-1.56-1.19-2.06-2.06s-.76-1.83-.76-2.89c0-1.56.55-2.91,1.67-4.05,1.11-1.13,2.46-1.7,4.05-1.7s2.91.57,4.05,1.7c1.13,1.14,1.7,2.48,1.7,4.05Z"/>
        <path class="cls-1" d="m294.37,120.67c-1.14.43-2.33.83-3.59,1.19-1.26.37-2.68.67-4.26.91-1.58.24-3.3.36-5.16.36-4.21,0-7.78-.71-10.69-2.14-2.91-1.42-5.16-3.22-6.73-5.37-1.58-2.16-2.67-4.36-3.27-6.6-.61-2.24-.91-4.22-.91-5.94s.31-3.69.93-5.94c.62-2.24,1.7-4.41,3.23-6.51,1.54-2.09,3.76-3.85,6.68-5.26,2.91-1.41,6.5-2.12,10.76-2.12,2.85,0,5.17.2,6.96.61,1.79.4,3.61.95,5.45,1.63v10.71c-4.44-1.41-7.91-2.12-10.41-2.12s-4.57.73-6.45,2.19c-1.88,1.46-2.82,3.73-2.82,6.81,0,2.04.47,3.76,1.4,5.16.93,1.4,2.12,2.43,3.56,3.08,1.44.66,2.88.98,4.31.98,1.36,0,2.91-.2,4.65-.61,1.74-.4,3.86-.98,6.36-1.74v10.71Z"/>
        <path class="cls-1" d="m331.11,111.21c0,3.53-1.29,6.4-3.88,8.61-2.59,2.21-6.43,3.31-11.52,3.31-2.85,0-5.39-.26-7.61-.78s-4.64-1.25-7.26-2.21v-9.69c2.29,1.31,4.29,2.31,5.98,2.99,1.69.68,3.54,1.02,5.56,1.02,3.41,0,5.11-.93,5.11-2.8,0-.63-.25-1.19-.74-1.68s-1.35-1.05-2.57-1.66c-1.22-.62-2.86-1.36-4.9-2.21-2.52-1.11-4.67-2.6-6.43-4.46-1.77-1.87-2.65-4.15-2.65-6.85,0-1.92.59-3.76,1.76-5.52,1.17-1.77,2.95-3.21,5.32-4.33,2.37-1.12,5.23-1.68,8.59-1.68.81,0,1.83.06,3.08.17,1.25.11,2.83.41,4.73.89,1.9.48,3.71,1.16,5.43,2.04v9.42c-.81-.48-1.48-.88-2.02-1.21-.54-.33-1.27-.69-2.18-1.1-.91-.4-1.97-.76-3.2-1.08-1.22-.31-2.48-.47-3.76-.47-1.56,0-2.64.3-3.22.91s-.87,1.21-.87,1.82.3,1.22.91,1.76c.61.54,1.95,1.22,4.05,2.02,3.03,1.16,5.45,2.35,7.26,3.58,1.82,1.22,3.11,2.57,3.88,4.03.77,1.46,1.15,3.19,1.15,5.18Z"/>
      </g>
      <g>
        <path class="cls-1" d="m37.83,37.01c0,3.2-.82,5.97-2.46,8.31-1.64,2.34-3.92,4.13-6.85,5.38-2.93,1.24-6.29,1.87-10.08,1.87-1.06,0-2.36-.07-3.9-.2-1.54-.14-3.58-.51-6.13-1.13-2.55-.62-5.2-1.53-7.96-2.73v-12.56c2.59,1.6,5.13,2.93,7.63,3.99,2.5,1.06,5.18,1.59,8.03,1.59,2.63,0,4.34-.44,5.12-1.31.78-.87,1.16-1.69,1.16-2.46,0-1.38-.67-2.54-1.99-3.49-1.33-.95-3.26-1.93-5.8-2.94-2.81-1.18-5.27-2.47-7.39-3.86-2.12-1.39-3.85-3.13-5.19-5.23-1.34-2.09-2.01-4.57-2.01-7.43s.68-5.25,2.03-7.48c1.35-2.23,3.42-4.01,6.21-5.34,2.78-1.33,6.18-1.99,10.2-1.99,2.86,0,5.5.28,7.92.83,2.43.55,4.43,1.18,6,1.87,1.58.69,2.66,1.23,3.25,1.62v12.01c-2.09-1.5-4.43-2.84-7-4.03-2.57-1.18-5.33-1.77-8.26-1.77-1.92,0-3.31.37-4.17,1.11-.86.74-1.29,1.65-1.29,2.73,0,1.01.43,1.88,1.29,2.62.86.74,2.4,1.64,4.62,2.7,3.94,1.85,7.09,3.51,9.46,4.99s4.22,3.18,5.56,5.12c1.34,1.93,2.01,4.34,2.01,7.22Z"/>
        <path class="cls-1" d="m85.15,50.02c-1.95.76-3.74,1.38-5.39,1.85-1.65.47-3.63.7-5.95.7-2.19,0-3.72-.39-4.58-1.16-.86-.78-1.48-1.72-1.85-2.83-1.43,1.16-3.02,2.11-4.77,2.86s-4.04,1.13-6.87,1.13-4.94-.47-6.63-1.42c-1.69-.95-2.87-2.14-3.55-3.58-.68-1.44-1.02-2.92-1.02-4.45,0-2.31.58-4.23,1.75-5.74,1.17-1.51,2.74-2.75,4.71-3.71,1.97-.96,4.58-1.96,7.83-2.99,1.85-.59,3.24-1.04,4.19-1.35.95-.31,1.66-.55,2.12-.72.47-.17.96-.39,1.48-.67,0-1.82-.37-3.25-1.11-4.29s-2.34-1.55-4.8-1.55c-2.91,0-5.6.64-8.09,1.92-2.49,1.28-4.77,2.93-6.83,4.95v-10.2c1.65-1.18,3.44-2.15,5.36-2.9,1.92-.75,3.93-1.31,6.02-1.68,2.09-.37,4.21-.55,6.35-.55,5.44,0,9.54,1.05,12.28,3.16,2.75,2.11,4.12,5.01,4.12,8.7v14.52c0,1.38.13,2.41.39,3.08.26.68.73,1.02,1.42,1.02.84,0,1.97-.36,3.4-1.07v6.98Zm-18.51-7.2v-8.9c-3.15,1.28-5.46,2.43-6.91,3.45s-2.18,2.41-2.18,4.16c0,1.26.36,2.22,1.09,2.88.73.67,1.57,1,2.53,1,.91,0,1.82-.25,2.72-.76.9-.5,1.82-1.11,2.75-1.83Z"/>
        <path class="cls-1" d="m157.41,51.9h-13.3v-20.06c0-2.66-.44-4.65-1.31-5.97-.87-1.32-2.26-1.98-4.16-1.98s-3.36.56-4.54,1.68-2.36,2.53-3.55,4.23v22.09h-13.3v-20.06c0-2.54-.41-4.49-1.22-5.87-.81-1.38-2.25-2.07-4.32-2.07-.99,0-1.89.2-2.71.59-.83.39-1.5.84-2.01,1.33-.52.49-1.15,1.22-1.88,2.18s-1.21,1.56-1.4,1.81v22.09h-13.3V14.3h13.3v5.39c2-2.12,4.03-3.66,6.1-4.62,2.07-.96,4.46-1.44,7.17-1.44,1.28,0,2.5.12,3.66.35,1.16.23,2.3.63,3.42,1.2,1.12.57,2.14,1.34,3.05,2.33.91.99,1.64,2.13,2.18,3.44,2.14-2.41,4.37-4.24,6.67-5.47,2.3-1.23,4.96-1.85,7.96-1.85s5.52.6,7.55,1.81c2.03,1.21,3.53,2.95,4.51,5.23.97,2.28,1.46,5.04,1.46,8.29v22.94Z"/>
        <path class="cls-1" d="m206.61,32.84c0,2.51-.36,4.94-1.07,7.28-.71,2.34-1.8,4.45-3.27,6.34-1.47,1.88-3.35,3.37-5.65,4.47s-4.98,1.64-8.04,1.64c-2.46,0-4.4-.26-5.82-.78-1.42-.52-2.83-1.21-4.23-2.07v19.28h-13.3V14.3h13.3v3.4c1.33-1.16,2.8-2.12,4.41-2.9,1.61-.78,3.8-1.16,6.56-1.16s5.42.68,8.05,2.03c2.63,1.35,4.8,3.47,6.5,6.34,1.7,2.87,2.55,6.48,2.55,10.84Zm-14,.3c0-2.27-.36-4.11-1.07-5.52-.71-1.42-1.64-2.44-2.77-3.07-1.13-.63-2.3-.94-3.51-.94-1.58,0-2.87.25-3.88.76-1.01.51-1.96,1.14-2.84,1.9v14.37c.47.25.97.52,1.5.83.53.31,1.06.57,1.59.79.53.22,1.1.41,1.7.55.6.15,1.25.22,1.94.22,2.09,0,3.84-.89,5.25-2.66,1.4-1.77,2.11-4.19,2.11-7.24Z"/>
        <path class="cls-1" d="m227.52,51.9h-13.34V.7h13.34v51.2Z"/>
        <path class="cls-1" d="m275.25,36.31h-26.49c.52,2.29,1.79,4.16,3.8,5.61,2.02,1.45,4.31,2.18,6.87,2.18,4.48,0,9.43-1.26,14.85-3.77v8.24c-1.95,1.01-4.3,1.93-7.07,2.75-2.77.83-6.3,1.24-10.58,1.24-4.63,0-8.57-.86-11.82-2.59-3.25-1.72-5.68-4.06-7.3-7.02-1.61-2.96-2.42-6.3-2.42-10.05s.81-7,2.42-9.92,4.04-5.21,7.3-6.87c3.25-1.66,7.19-2.49,11.82-2.49,3.05,0,6,.66,8.85,1.98,2.84,1.32,5.18,3.47,7.02,6.46,1.83,2.99,2.75,6.85,2.75,11.58v2.66Zm-12.49-6.58c0-2.41-.6-4.34-1.79-5.78-1.2-1.44-2.91-2.16-5.15-2.16s-4.01.73-5.38,2.2-2.05,3.38-2.05,5.74h14.37Z"/>
      </g>
      <path class="cls-2" d="m340.31,2.31s-38.84-5-50.84,22,6.84,50.36,25.42,55.18c0,0-21.24-12.3-16.42-41.18,3-18,15-31,41.84-36Z"/>
    </g>
  </g>
</svg>